<svg width="1200" height="630" viewBox="0 0 1200 630" fill="none" xmlns="http://www.w3.org/2000/svg">
  <rect width="1200" height="630" fill="#030712"/>
  <circle cx="920" cy="120" r="260" fill="white" fill-opacity="0.06"/>
  <circle cx="170" cy="540" r="260" fill="white" fill-opacity="0.05"/>
  <rect x="72" y="72" width="1056" height="486" rx="48" fill="white" fill-opacity="0.06" stroke="white" stroke-opacity="0.12"/>
  
  <g transform="translate(86 92)">
    <rect width="82" height="82" rx="24" fill="white"/>
    <path d="M18 45C18 36.716 24.716 30 33 30H49C57.284 30 64 36.716 64 45C64 53.284 57.284 60 49 60H33C24.716 60 18 53.284 18 45Z" stroke="#030712" stroke-width="5"/>
    <circle cx="36" cy="45" r="3" fill="#030712"/>
    <circle cx="46" cy="45" r="3" fill="#030712"/>
    <path d="M25 29L19 21" stroke="#030712" stroke-width="5" stroke-linecap="round"/>
    <path d="M57 29L63 21" stroke="#030712" stroke-width="5" stroke-linecap="round"/>
  </g>

  <text x="86" y="245" fill="white" font-size="72" font-family="Arial, Helvetica, sans-serif" font-weight="700">
    Rokid Glasses
  </text>

  <text x="86" y="325" fill="#D1D5DB" font-size="38" font-family="Arial, Helvetica, sans-serif" font-weight="500">
    Kính thông minh AI cho trải nghiệm tương lai
  </text>

  <text x="86" y="398" fill="#9CA3AF" font-size="28" font-family="Arial, Helvetica, sans-serif">
    React • Vite • Tailwind CSS • Dark Mode • Web3Forms • Chatbot
  </text>

  <g transform="translate(760 242)">
    <path d="M0 90C0 40.294 40.294 0 90 0H260C309.706 0 350 40.294 350 90C350 139.706 309.706 180 260 180H90C40.294 180 0 139.706 0 90Z" stroke="white" stroke-width="14"/>
    <path d="M74 90C74 62.386 96.386 40 124 40H226C253.614 40 276 62.386 276 90C276 117.614 253.614 140 226 140H124C96.386 140 74 117.614 74 90Z" fill="white"/>
    <circle cx="144" cy="90" r="14" fill="#030712"/>
    <circle cx="206" cy="90" r="14" fill="#030712"/>
    <path d="M46 0L10 -50" stroke="white" stroke-width="14" stroke-linecap="round"/>
    <path d="M304 0L340 -50" stroke="white" stroke-width="14" stroke-linecap="round"/>
  </g>
</svg>